<svg xmlns="http://www.w3.org/2000/svg" xmlns:svgjs="http://svgjs.com/svgjs" xmlns:xlink="http://www.w3.org/1999/xlink" width="288" height="288"><svg xmlns="http://www.w3.org/2000/svg" width="288" height="288" version="1.0" viewBox="0 0 1789 1275"><g fill="#fff" class="color000 svgShape" transform="matrix(.1 0 0 -.1 0 1275)"><path d="M8951 9544 c-147 -39 -291 -152 -359 -282 l-33 -62 -57 50 c-68 61-189 124 -269 140 -84 18 -234 8 -308 -20 -174 -66 -298 -194 -357 -370 -22
-63 -22 -80 -26 -582 l-3 -516 -193 -4 -193 -3 -85 -42 -86 -43 -384 0 c-439
0 -443 1 -494 82 -97 155 -166 248 -245 332 -411 434 -1037 592 -1604 405
-208 -69 -500 -242 -629 -373 -65 -66 -155 -186 -172 -229 -5 -15 52 -16 658
-19 648 -3 664 -3 708 -24 53 -25 103 -78 121 -131 11 -30 14 -170 14 -709 l0
-670 -30 -59 c-27 -52 -38 -63 -89 -90 l-60 -30 -669 -5 -670 -5 61 -80 c76
-101 232 -254 342 -334 103 -77 314 -182 433 -215 457 -131 969 -56 1335 196
155 107 366 336 459 498 41 71 88 116 138 129 24 7 150 11 321 11 l281 0 6
-202 c5 -231 25 -352 83 -521 113 -326 297 -573 589 -794 179 -135 288 -291
346 -499 22 -75 23 -102 28 -579 l6 -500 26 -55 c37 -80 81 -125 157 -162 l67
-33 1285 0 c1243 0 1287 1 1335 19 62 24 139 95 173 161 l27 50 3 648 3 649
83 116 c344 478 543 1022 591 1620 l7 82 587 -2 586 -3 5 -330 5 -330 27 -50
c32 -62 103 -129 166 -158 46 -22 54 -22 632 -22 l585 0 58 29 c68 35 130 98
160 164 l22 47 0 1315 0 1315 -23 46 c-37 75 -87 125 -160 161 l-67 33 -570 0
c-525 0 -574 -1 -622 -18 -66 -23 -146 -94 -181 -161 l-27 -51 -5 -330 -5
-330 -585 0 -585 0 -5 365 c-5 311 -8 371 -23 408 -61 156 -162 273 -287 334
-98 47 -166 63 -270 61 -131 -1 -247 -46 -372 -143 l-28 -22 0 44 c0 180 -138
388 -314 473 -90 43 -215 68 -296 60 -133 -15 -264 -73 -348 -156 l-51 -50
-26 53 c-76 152 -209 260 -372 302 -75 20 -210 20 -282 0z m221 -155 c148 -32
269 -144 312 -288 14 -48 16 -149 16 -857 0 -770 -1 -804 -20 -866 -37 -120
-105 -198 -219 -252 -54 -24 -82 -31 -154 -34 -52 -3 -93 0 -98 5 -7 7 -6 25
2 54 19 67 16 233 -5 304 -43 145 -158 296 -269 355 l-47 25 2 630 3 630 32
68 c81 170 265 264 445 226z m-980 -160 c126 -27 233 -111 291 -228 l32 -66 3
-520 3 -520 -406 3 -406 2 3 518 3 517 33 68 c85 172 264 264 444 226z m2000
-19 c118 -36 218 -130 265 -250 17 -41 18 -103 21 -774 3 -806 4 -797 -61
-905 -41 -68 -95 -115 -177 -155 -60 -29 -73 -31 -170 -31 -98 0 -109 2 -171
32 -80 39 -159 120 -197 200 l-27 58 0 775 0 775 26 55 c91 189 295 281 491
220z m982 -410 c138 -43 244 -161 275 -308 15 -72 15 -1016 0 -1097 -24 -129
-107 -238 -227 -297 -63 -31 -73 -33 -172 -33 -98 0 -110 3 -171 32 -80 39
-159 120 -197 200 -26 57 -27 63 -33 323 -11 400 -10 788 1 853 40 250 283
401 524 327z m-2689 -1070 c173 -28 317 -160 361 -330 54 -212 -63 -437 -274
-522 -56 -23 -64 -23 -550 -28 l-494 -5 -19 -24 c-21 -26 -25 -78 -6 -102 28
-36 52 -39 311 -39 l256 0 0 -66 c0 -58 3 -69 28 -94 l28 -28 219 -5 c250 -5
318 -18 462 -88 303 -145 501 -439 529 -783 8 -107 26 -136 83 -136 27 0 44 7
61 25 22 23 23 29 17 132 -17 305 -183 613 -429 795 -37 28 -68 52 -68 54 0 2
552 4 1226 4 l1227 0 -7 -104 c-33 -516 -240 -1068 -569 -1520 l-69 -94 -56
26 -57 27 -1295 0 -1295 0 -47 -24 c-26 -13 -67 -40 -90 -60 l-42 -38 -51 85
c-63 107 -177 229 -315 337 -313 246 -496 543 -566 920 -17 91 -19 159 -19
780 l0 680 26 55 c41 89 113 147 206 169 53 12 1203 13 1278 1z m2204 -3095
c19 -11 43 -33 55 -48 21 -28 21 -35 21 -600 l0 -572 -23 -33 c-52 -72 51 -67
-1307 -70 -829 -2 -1236 1 -1271 8 -37 8 -60 20 -85 46 l-34 35 0 584 0 584
35 36 c19 19 48 40 65 44 17 5 571 9 1270 8 1220 -2 1241 -2 1274 -22z" class="color000 svgShape"/><path d="M8673 4176l-28-24 0-157 0-157 28-24c35-30 94-32 128-5 22 17 24 29 27 116l4 96-44-3c-39-3-43-6-46-30-2-20 1-28 13-28 13 0 15-10 13-52-3-50-5-53-31-56l-28-3 3 143 3 143 25 0c22 0 25-5 28-37 3-35 6-38 33-38 26 0 29 3 29 35 0 19-5 45-11 58-23 50-100 62-146 23zM9219 4171l-29-29 0-142c0-185 12-210 98-210 78 1 92 33 92 210l0 142-29 29c-22 21-39 29-66 29-27 0-44-8-66-29zm95-47c3-9 6-71 6-139 0-107-2-125-17-134-11-6-24-6-35 0-16 9-18 25-18 134 0 68 3 130 6 139 3 9 16 16 29 16 13 0 26-7 29-16zM9683 4176l-28-24 0-157 0-157 28-24c39-33 99-33 132 1 24 23 25 28 25 177-1 104-4 158-13 169-34 44-102 51-144 15zm95-178c2-127 1-138-17-147-15-8-23-7-35 5-13 12-16 40-16 134 0 140 3 152 39 148l26-3 3-137zM8460 4185c0-2-13-88-30-190-16-102-30-190-30-196 0-6 12-9 28-7 22 2 28 9 32 38 5 33 7 35 45 35 38 0 40-2 45-35 4-31 9-35 39-38 25-3 32 0 29 10-3 7-18 97-34 201l-29 187-47 0c-27 0-48-2-48-5zM8960 3990l0-200 30 0 29 0 3 82c2 64 6 83 18 85 33 6 45-15 50-89 5-72 5-73 35-76l30-3-5 84c-3 48-11 91-18 100-12 14-11 20 2 39 29 41 17 147-18 170-6 4-44 8-83 8l-73 0 0-200zM9420 3989l0-201 75 4c102 5 120 22 120 114 0 55-4 69-21 83-21 17-21 18-3 40 31 38 22 129-15 153-6 4-44 8-83 8l-73 0 0-201zM9870 4165c0-21 5-25 30-25l30 0 0-176 0-175 33 3 32 3 3 173 2 172 30 0c25 0 30 4 30 25 0 25 0 25-95 25-95 0-95 0-95-25zM10090 3990l0-200 30 0 30 0 0 200 0 200-30 0-30 0 0-200zM10200 3990l0-200 30 0 30 0 0 63c0 35 6 71 13 81 11 15 16 7 42-63 28-79 30-81 62-81l33 0-19 48c-10 26-31 77-46 113l-26 67 40 81c23 44 41 83 41 86 0 3-13 5-29 5-26 0-32-7-67-82l-39-83-3 83-3 82-29 0-30 0 0-200z" class="color000 svgShape"/></g></svg></svg>